<?xml version="1.0" encoding="UTF-8" standalone="no"?>
<!-- Created with Inkscape (http://www.inkscape.org/) -->

<svg
   xmlns:dc="http://purl.org/dc/elements/1.1/"
   xmlns:cc="http://creativecommons.org/ns#"
   xmlns:rdf="http://www.w3.org/1999/02/22-rdf-syntax-ns#"
   xmlns:svg="http://www.w3.org/2000/svg"
   xmlns="http://www.w3.org/2000/svg"
   xmlns:sodipodi="http://sodipodi.sourceforge.net/DTD/sodipodi-0.dtd"
   xmlns:inkscape="http://www.inkscape.org/namespaces/inkscape"
   inkscape:export-ydpi="90.000000"
   inkscape:export-xdpi="90.000000"
   inkscape:export-filename="/home/lapo/firewall.png"
   width="400"
   height="300"
   id="svg11300"
   sodipodi:version="0.32"
   inkscape:version="0.48.1 r9760"
   sodipodi:docname="gcr-gnupg.svg"
   inkscape:output_extension="org.inkscape.output.svg.inkscape"
   version="1.0"
   style="display:inline;enable-background:new">
  <title
     id="title4872">Firewall</title>
  <sodipodi:namedview
     stroke="#ef2929"
     fill="#f57900"
     id="base"
     pagecolor="#474747"
     bordercolor="#666666"
     borderopacity="0.25490196"
     inkscape:pageopacity="0"
     inkscape:pageshadow="2"
     inkscape:zoom="2.2824768"
     inkscape:cx="287.30394"
     inkscape:cy="217.42514"
     inkscape:current-layer="layer2"
     showgrid="true"
     inkscape:grid-bbox="true"
     inkscape:document-units="px"
     inkscape:showpageshadow="false"
     inkscape:window-width="1360"
     inkscape:window-height="973"
     inkscape:window-x="151"
     inkscape:window-y="46"
     width="400px"
     height="300px"
     inkscape:snap-nodes="false"
     inkscape:snap-bbox="true"
     gridtolerance="10000"
     inkscape:object-nodes="true"
     inkscape:snap-grids="true"
     showguides="false"
     inkscape:guide-bbox="true"
     inkscape:window-maximized="0">
    <inkscape:grid
       spacingy="1px"
       spacingx="1px"
       id="grid5883"
       type="xygrid"
       enabled="true"
       visible="true"
       empspacing="4"
       snapvisiblegridlinesonly="true" />
    <inkscape:grid
       type="xygrid"
       id="grid11592"
       empspacing="2"
       visible="true"
       enabled="false"
       spacingx="0.5px"
       spacingy="0.5px"
       color="#ff0000"
       opacity="0.1254902"
       empcolor="#ff0000"
       empopacity="0.25098039"
       snapvisiblegridlinesonly="true" />
    <sodipodi:guide
       orientation="-0.70710678,0.70710678"
       position="309.8125,173.625"
       id="guide9630" />
  </sodipodi:namedview>
  <defs
     id="defs3" />
  <metadata
     id="metadata4">
    <rdf:RDF>
      <cc:Work
         rdf:about="">
        <dc:format>image/svg+xml</dc:format>
        <dc:type
           rdf:resource="http://purl.org/dc/dcmitype/StillImage" />
        <dc:creator>
          <cc:Agent>
            <dc:title>Lapo Calamandrei</dc:title>
          </cc:Agent>
        </dc:creator>
        <dc:source />
        <cc:license
           rdf:resource="" />
        <dc:title>Firewall</dc:title>
        <dc:subject>
          <rdf:Bag />
        </dc:subject>
        <dc:date />
        <dc:rights>
          <cc:Agent>
            <dc:title />
          </cc:Agent>
        </dc:rights>
        <dc:publisher>
          <cc:Agent>
            <dc:title />
          </cc:Agent>
        </dc:publisher>
        <dc:identifier />
        <dc:relation />
        <dc:language />
        <dc:coverage />
        <dc:description />
        <dc:contributor>
          <cc:Agent>
            <dc:title />
          </cc:Agent>
        </dc:contributor>
      </cc:Work>
      <cc:Work
         rdf:about="">
        <dc:format>image/svg+xml</dc:format>
        <dc:type
           rdf:resource="http://purl.org/dc/dcmitype/StillImage" />
      </cc:Work>
    </rdf:RDF>
  </metadata>
  <g
     style="display:inline"
     inkscape:groupmode="layer"
     inkscape:label="artwork"
     id="layer1">
    <g
       inkscape:groupmode="layer"
       id="layer2"
       inkscape:label="baseplate"
       style="display:none"
       sodipodi:insensitive="true">
      <rect
         style="fill:#eeeeec;fill-opacity:1;fill-rule:nonzero;stroke:none;stroke-width:2;marker:none;visibility:visible;display:inline;overflow:visible;enable-background:accumulate"
         id="rect6284"
         width="48"
         height="48"
         x="296.0625"
         y="51.99633"
         inkscape:label="48x48" />
      <rect
         inkscape:label="32x32"
         y="127.99634"
         x="303"
         height="32"
         width="32"
         id="rect6592"
         style="fill:#eeeeec;fill-opacity:1;fill-rule:nonzero;stroke:none;stroke-width:2;marker:none;visibility:visible;display:inline;overflow:visible;enable-background:accumulate" />
      <rect
         inkscape:label="24x24"
         y="178"
         x="302"
         height="24"
         width="24"
         id="rect5028"
         style="fill:#ffffff;fill-opacity:1;fill-rule:nonzero;stroke:none;stroke-width:2;marker:none;visibility:visible;display:inline;overflow:visible;enable-background:accumulate" />
      <rect
         inkscape:label="16x16"
         y="221"
         x="303"
         height="16"
         width="16"
         id="rect6833"
         style="fill:#eeeeec;fill-opacity:1;fill-rule:nonzero;stroke:none;stroke-width:2;marker:none;visibility:visible;display:inline;overflow:visible;enable-background:accumulate" />
      <rect
         style="fill:#eeeeec;fill-opacity:1;fill-rule:nonzero;stroke:none;stroke-width:2;marker:none;visibility:visible;display:inline;overflow:visible;enable-background:accumulate"
         id="rect6749"
         width="22"
         height="22"
         x="303"
         y="179.05884"
         inkscape:label="22x22" />
      <text
         id="context"
         inkscape:label="context"
         style="font-size:18px;font-style:normal;font-variant:normal;font-weight:normal;font-stretch:normal;fill:#000000;fill-opacity:1;stroke:none;display:inline;enable-background:new;font-family:DejaVu Sans;-inkscape-font-specification:DejaVu Sans"
         x="31.87059"
         xml:space="preserve"
         y="18.860306"><tspan
           id="tspan2716"
           sodipodi:role="line"
           x="31.87059"
           y="18.860306"
           style="font-style:normal;font-variant:normal;font-weight:normal;font-stretch:normal;font-family:DejaVu Sans;-inkscape-font-specification:DejaVu Sans">apps</tspan></text>
      <text
         id="icon-name"
         inkscape:label="icon-name"
         sodipodi:linespacing="125%"
         style="font-size:18px;font-style:normal;font-variant:normal;font-weight:bold;font-stretch:normal;text-align:start;line-height:125%;writing-mode:lr-tb;text-anchor:start;fill:#000000;fill-opacity:1;stroke:none;display:inline;enable-background:new;font-family:DejaVu Sans;-inkscape-font-specification:DejaVu Sans Bold"
         x="302.87057"
         xml:space="preserve"
         y="18.860306"><tspan
           id="tspan3023"
           sodipodi:role="line"
           x="302.87057"
           y="18.860306"
           style="font-size:18px;font-style:normal;font-variant:normal;font-weight:bold;font-stretch:normal;font-family:DejaVu Sans;-inkscape-font-specification:DejaVu Sans Bold">gcr-gnupg</tspan></text>
      <rect
         inkscape:label="256x256"
         y="32"
         x="20"
         height="256"
         width="256"
         id="rect6282"
         style="fill:#eeeeec;fill-opacity:1;fill-rule:nonzero;stroke:none;stroke-width:2;marker:none;visibility:visible;display:inline;overflow:visible;enable-background:accumulate"
         inkscape:export-xdpi="90"
         inkscape:export-ydpi="90" />
    </g>
    <g
       inkscape:groupmode="layer"
       id="layer4"
       inkscape:label="smallsizes"
       style="display:inline"
       sodipodi:insensitive="true">
      <g
         id="g6154"
         style="fill:#ffffff"
         transform="matrix(1.25,0,0,1.25,-78,-47.25)" />
      <path
         class="fil0"
         d="m 302.00812,74.988138 2.45996,0 0,-7.113676 C 304.46808,59.661042 311.20016,53 319.50109,53 c 8.30123,0 15.03287,6.661042 15.03287,14.874462 l 0,7.254299 c -0.0354,0.0246 -0.0709,0.04869 -0.10574,0.07236 l 1.9e-4,0 -0.023,0.01527 -0.002,0.0017 -0.002,0.0015 -0.002,0.0017 -0.0115,0.0077 -0.0132,0.009 -0.002,0.0017 -0.0153,0.0099 -7.8e-4,5.75e-4 -0.007,0.0039 -0.004,0.0021 -0.007,0.0048 -0.002,0.0011 -0.009,0.0058 -8e-5,0 -0.009,0.006 -0.0115,0.0081 -0.007,0.0039 -0.004,0.0034 -0.004,0.0027 -0.0132,0.0092 -0.0133,0.0085 -5.8e-4,5.73e-4 -0.0177,0.01113 -0.004,0.0025 -0.0198,0.01352 -0.002,0.0011 -0.009,0.0055 -1.8e-4,1.7e-4 -0.004,0.0019 -0.0272,0.01767 -0.004,0.0029 -0.007,0.0039 -0.002,0.0017 -0.002,0.0011 -0.0132,0.009 -0.002,7.65e-4 -1.8e-4,1.92e-4 -9.7e-4,5.76e-4 -0.0154,0.01022 -0.004,0.0021 -0.004,0.0034 -0.004,0.0031 -0.004,0.0025 -0.009,0.0055 -0.009,0.005 -6e-4,1.92e-4 -0.009,0.0055 -9.6e-4,5.77e-4 -0.009,0.0046 -0.002,0.0015 -0.007,0.0039 -0.004,0.0025 -0.004,0.0029 -0.004,0.0034 -0.004,0.0019 -0.0457,0.02838 -0.009,0.0058 -0.002,0.0015 -0.0245,0.01504 -0.002,0.0011 -0.0277,0.0168 -7.8e-4,5.74e-4 -0.002,0.0011 -0.009,0.0044 -5.6e-4,1.89e-4 -0.009,0.0048 -9.7e-4,5.74e-4 -0.007,0.0041 -0.007,0.0041 -9.7e-4,5.77e-4 -0.004,0.0021 -0.0116,0.0073 -0.007,0.0039 -0.009,0.0055 -0.0269,0.01571 -0.0269,0.01571 -0.0272,0.01569 -0.0272,0.01571 -0.0547,0.03156 -0.0276,0.01569 -0.0276,0.01593 -0.0116,0.0065 -0.072,0.04116 -0.0279,0.01593 -0.0282,0.01592 -0.0282,0.01614 -0.0372,0.02093 -0.0486,0.02717 -0.0286,0.01614 -0.11179,0.06217 -0.004,0.0027 -0.0295,0.01614 -0.0295,0.01635 -0.007,0.0037 -0.0391,0.02138 -0.0881,0.04793 -0.0414,0.02247 c -0.0423,0.02272 -0.0851,0.04561 -0.12827,0.0685 l -0.0116,0.0058 -0.0198,0.01067 -0.0627,0.03302 -0.0315,0.01658 -0.004,0.0029 -0.0579,0.03027 -1.8e-4,1.72e-4 -0.0322,0.01658 -0.009,0.0048 -0.0553,0.02863 -0.0323,0.01657 -0.0297,0.01527 c -0.0406,0.02072 -0.0813,0.0415 -0.12254,0.06226 l -0.0337,0.01701 c -0.0486,0.02428 -0.0974,0.04869 -0.1468,0.07306 l -5.9e-4,1.72e-4 c -0.0472,0.02322 -0.0947,0.04656 -0.14305,0.06987 l -0.0477,0.02316 c -0.0523,0.02513 -0.10517,0.05051 -0.1587,0.0758 l -1.7e-4,0 c -2.9852,1.411022 -7.77286,2.912384 -16.8617,3.557946 -6.51102,0.462842 -10.4582,3.298366 -13.03271,6.720376 l 0,-11.888972 z m 9.38443,0 16.21702,0 0,-7.113676 c 0,-4.430434 -3.63095,-8.02307 -8.10848,-8.02307 -4.47743,0 -8.10854,3.592636 -8.10854,8.02307 z m 21.00719,1.368551 c -0.0484,0.02428 -0.0974,0.04862 -0.14678,0.07306 m -5.94178,-19.831356 c -1.92778,-1.139783 -4.18149,-1.795548 -6.58978,-1.795548 -6.60143,0 -12.04284,4.921229 -12.78307,11.256701 1.93522,-5.990699 7.60812,-10.330244 14.304,-10.330244 1.77863,0 3.48519,0.306959 5.06885,0.869091 z m 10.68301,21.407146 0,20.994461 -29.93203,0 c 3.29958,-1.815182 5.75868,-1.63032 9.8315,-1.502907 5.54635,0.173546 11.67487,-2.1254 14.68893,-5.169454 3.01439,-3.044392 -0.27283,-0.720326 -3.68505,0.136167 -3.41275,0.855975 -10.01632,0.947119 -14.43043,-0.200893 13.90252,0.187525 19.31317,-4.262204 22.38579,-8.247287 3.07245,-3.984999 -1.3289,-0.691861 -4.18019,0.681913 -2.85113,1.375063 -7.82381,2.357424 -13.29183,1.641038 8.27687,-0.01702 14.57453,-4.109493 18.61331,-8.333038 z"
         id="path3010"
         inkscape:connector-curvature="0"
         style="fill:#0093dd;fill-rule:evenodd;display:inline;enable-background:new"
         sodipodi:nodetypes="ccsssccccccccccccccccccccccccccccccccccccccccccccccccccccccccccccccccccccccccccccccccccccccccccccccccccccccccccccccccccccccccccccccccsssccccscsccccsscccccc" />
      <path
         sodipodi:nodetypes="ccsssccccccccccccccccccccccccccccccccccccccccccccccccccccccccccccccccccccccccccccccccccccccccccccccccccccccccccccccccccccccccccccccccsssccccscsccccsscccccc"
         style="fill:#0093dd;fill-rule:evenodd;display:inline;enable-background:new"
         inkscape:connector-curvature="0"
         id="path3013"
         d="m 308.01337,143.34003 1.61625,0 0,-4.63936 c 0,-5.35658 4.42313,-9.70074 9.87701,-9.70074 5.45409,0 9.87692,4.34416 9.87692,9.70074 l 0,4.73107 c -0.0233,0.016 -0.0465,0.0318 -0.0695,0.0472 l 1.2e-4,0 -0.0151,0.01 -10e-4,10e-4 -10e-4,6.5e-4 -0.001,0.001 -0.007,0.005 -0.009,0.006 -0.001,0.001 -0.0101,0.007 -5.2e-4,3.7e-4 -0.005,0.003 -0.003,0.001 -0.005,0.003 -10e-4,6.5e-4 -0.006,0.004 -6e-5,0 -0.006,0.004 -0.007,0.005 -0.005,0.003 -0.003,0.002 -0.003,0.002 -0.009,0.006 -0.009,0.005 -3.8e-4,3.7e-4 -0.0116,0.007 -0.003,10e-4 -0.013,0.009 -10e-4,6.5e-4 -0.006,0.004 -1.2e-4,1.1e-4 -0.003,0.001 -0.0178,0.0115 -0.003,0.002 -0.005,0.003 -0.001,0.001 -10e-4,6.5e-4 -0.009,0.006 -10e-4,4.9e-4 -1.2e-4,1.3e-4 -6.3e-4,3.8e-4 -0.0101,0.007 -0.003,10e-4 -0.003,0.002 -0.003,0.002 -0.003,0.001 -0.006,0.003 -0.006,0.003 -3.9e-4,1.3e-4 -0.006,0.003 -6.3e-4,3.7e-4 -0.006,0.003 -0.001,6.5e-4 -0.005,0.003 -0.003,0.001 -0.003,0.002 -0.003,0.002 -0.003,0.001 -0.03,0.0185 -0.006,0.004 -10e-4,6.5e-4 -0.0161,0.01 -0.001,6.5e-4 -0.0182,0.011 -5.2e-4,3.7e-4 -0.001,6.5e-4 -0.006,0.003 -3.6e-4,1.2e-4 -0.006,0.003 -6.3e-4,3.8e-4 -0.005,0.003 -0.005,0.003 -6.4e-4,3.7e-4 -0.003,0.001 -0.008,0.005 -0.005,0.003 -0.006,0.003 -0.0176,0.0102 -0.0176,0.0102 -0.0178,0.0102 -0.0178,0.0102 -0.036,0.0206 -0.0181,0.0102 -0.0181,0.0104 -0.008,0.005 -0.0473,0.0269 -0.0183,0.0104 -0.0185,0.0104 -0.0185,0.0105 -0.0245,0.0136 -0.0319,0.0177 -0.0188,0.0105 -0.0734,0.0406 -0.003,0.002 -0.0193,0.0105 -0.0193,0.0107 -0.005,0.003 -0.0257,0.014 -0.0579,0.0312 -0.0272,0.0147 c -0.0278,0.0148 -0.0559,0.0297 -0.0842,0.0447 l -0.008,0.004 -0.013,0.007 -0.0412,0.0215 -0.0208,0.0108 -0.003,0.002 -0.0381,0.0198 -1.1e-4,1.2e-4 -0.0212,0.0108 -0.006,0.003 -0.0364,0.0187 -0.0213,0.0108 -0.0195,0.01 c -0.0267,0.0135 -0.0534,0.0271 -0.0805,0.0406 l -0.0222,0.0111 c -0.0319,0.0159 -0.064,0.0318 -0.0964,0.0477 l -3.9e-4,1.1e-4 c -0.031,0.0151 -0.0623,0.0304 -0.094,0.0456 l -0.0313,0.0151 c -0.0344,0.0164 -0.0691,0.0329 -0.10427,0.0494 l -1.1e-4,0 c -1.96134,0.92023 -5.10694,1.89938 -11.0785,2.3204 -4.27788,0.30185 -6.87126,2.15111 -8.56277,4.38285 l 0,-7.75368 z m 6.16578,0 10.65493,0 0,-4.63936 c 0,-2.88941 -2.38561,-5.23244 -5.32745,-5.23244 -2.94177,0 -5.32748,2.34303 -5.32748,5.23244 z m 13.80217,0.89253 c -0.0318,0.0159 -0.064,0.0317 -0.0964,0.0477 m -3.90388,-12.9335 c -1.2666,-0.74333 -2.74733,-1.171 -4.32963,-1.171 -4.33728,0 -7.9124,3.20949 -8.39875,7.34133 1.27148,-3.90698 4.9987,-6.73712 9.39803,-6.73712 1.16861,0 2.28985,0.20019 3.33035,0.56679 z M 331,145.30795 331,159 l -19.66599,0 c 2.16789,-1.18381 3.78357,-1.06325 6.4595,-0.98016 3.64408,0.11319 7.67065,-1.38613 9.65095,-3.37138 1.98052,-1.98547 -0.17925,-0.46978 -2.42116,0.0888 -2.24225,0.55824 -6.58094,0.61768 -9.4811,-0.13103 9.13426,0.12231 12.68916,-2.77969 14.70795,-5.37866 2.01866,-2.59891 -0.87312,-0.45122 -2.74649,0.44472 -1.87325,0.89678 -5.1404,1.53745 -8.73301,1.07025 5.43809,-0.0111 9.57578,-2.68011 12.22935,-5.4346 z"
         class="fil0" />
      <path
         class="fil0"
         d="m 305.00554,189.51605 1.19493,0 0,-3.40219 c 0,-3.92815 3.2701,-7.11386 7.30226,-7.11386 4.03231,0 7.30219,3.18571 7.30219,7.11386 l 0,3.46944 c -0.0172,0.0117 -0.0344,0.0233 -0.0514,0.0346 l 8e-5,0 -0.0112,0.007 -7.4e-4,7.3e-4 -7.5e-4,4.8e-4 -7.3e-4,7.3e-4 -0.005,0.004 -0.007,0.004 -7.5e-4,7.3e-4 -0.007,0.005 -3.9e-4,2.7e-4 -0.004,0.002 -0.002,7.3e-4 -0.004,0.002 -7.3e-4,4.8e-4 -0.004,0.003 -5e-5,0 -0.004,0.003 -0.005,0.004 -0.004,0.002 -0.002,0.001 -0.002,0.001 -0.007,0.004 -0.007,0.004 -2.8e-4,2.7e-4 -0.009,0.005 -0.002,7.3e-4 -0.0101,0.007 -7.5e-4,4.8e-4 -0.004,0.003 -8e-5,8e-5 -0.002,7.3e-4 -0.0132,0.008 -0.002,0.001 -0.004,0.002 -7.4e-4,7.4e-4 -7.4e-4,4.7e-4 -0.007,0.004 -7.4e-4,3.6e-4 -9e-5,1e-4 -4.7e-4,2.8e-4 -0.007,0.005 -0.002,7.3e-4 -0.002,0.001 -0.002,10e-4 -0.002,7.3e-4 -0.004,0.002 -0.004,0.002 -3e-4,9e-5 -0.004,0.002 -4.6e-4,2.8e-4 -0.004,0.002 -7.4e-4,4.7e-4 -0.004,0.002 -0.002,7.4e-4 -0.002,0.001 -0.002,0.001 -0.002,7.3e-4 -0.0222,0.0136 -0.004,0.003 -7.4e-4,4.8e-4 -0.0119,0.007 -7.4e-4,4.8e-4 -0.0135,0.008 -3.8e-4,2.7e-4 -7.4e-4,4.7e-4 -0.004,0.002 -2.7e-4,9e-5 -0.004,0.002 -4.7e-4,2.8e-4 -0.004,0.002 -0.004,0.002 -4.8e-4,2.7e-4 -0.002,7.3e-4 -0.006,0.004 -0.004,0.002 -0.004,0.002 -0.013,0.007 -0.013,0.007 -0.0132,0.007 -0.0132,0.007 -0.0266,0.0151 -0.0134,0.007 -0.0134,0.008 -0.006,0.004 -0.035,0.0197 -0.0135,0.008 -0.0137,0.008 -0.0137,0.008 -0.0181,0.01 -0.0236,0.013 -0.0139,0.008 -0.0542,0.0298 -0.002,0.001 -0.0143,0.008 -0.0142,0.008 -0.004,0.002 -0.0189,0.0103 -0.0428,0.0229 -0.0201,0.0108 c -0.0206,0.0109 -0.0413,0.0218 -0.0622,0.0328 l -0.006,0.003 -0.0101,0.005 -0.0304,0.0158 -0.0154,0.008 -0.002,0.001 -0.0281,0.0145 -8e-5,9e-5 -0.0157,0.008 -0.004,0.002 -0.0269,0.0137 -0.0157,0.008 -0.0144,0.007 c -0.0198,0.01 -0.0395,0.0199 -0.0595,0.0298 l -0.0164,0.008 c -0.0236,0.0117 -0.0473,0.0233 -0.0713,0.035 l -2.8e-4,8e-5 c -0.0229,0.0111 -0.0461,0.0223 -0.0695,0.0334 l -0.0231,0.0111 c -0.0254,0.012 -0.0511,0.0241 -0.0771,0.0362 l -9e-5,0 c -1.45006,0.67483 -3.77566,1.39287 -8.19054,1.70162 -3.16272,0.22135 -5.08005,1.57748 -6.33062,3.21408 l 0,-5.68602 z m 4.55848,0 7.87739,0 0,-3.40219 c 0,-2.1189 -1.76372,-3.83711 -3.93868,-3.83711 -2.17491,0 -3.93871,1.71821 -3.93871,3.83711 z m 10.20421,0.65452 c -0.0235,0.0117 -0.0473,0.0232 -0.0713,0.035 m -2.8862,-9.48457 c -0.93643,-0.5451 -2.03115,-0.85873 -3.20098,-0.85873 -3.20663,0 -5.84979,2.35362 -6.20935,5.38363 0.94002,-2.86511 3.69563,-4.94054 6.94814,-4.94054 0.86397,0 1.69293,0.14681 2.46219,0.41564 z M 322,190.95919 322,201 l -14.53944,0 c 1.60277,-0.86813 2.79727,-0.77971 4.77563,-0.71878 2.69414,0.083 5.67106,-1.0165 7.13513,-2.47234 1.46423,-1.45601 -0.13252,-0.34451 -1.79001,0.0651 -1.65774,0.40937 -4.86541,0.45296 -7.00956,-0.0961 6.75313,0.0897 9.38133,-2.03844 10.87387,-3.94434 1.49243,-1.90586 -0.64552,-0.3309 -2.03053,0.32613 -1.38493,0.65763 -3.8004,1.12746 -6.45648,0.78484 4.02048,-0.008 7.07955,-1.96541 9.04139,-3.98536 z"
         id="path3015"
         inkscape:connector-curvature="0"
         style="fill:#0093dd;fill-rule:evenodd;display:inline;enable-background:new"
         sodipodi:nodetypes="ccsssccccccccccccccccccccccccccccccccccccccccccccccccccccccccccccccccccccccccccccccccccccccccccccccccccccccccccccccccccccccccccccccccsssccccscsccccsscccccc" />
      <path
         sodipodi:nodetypes="ccsssccccccccccccccccccccccccccccccccccccccccccccccccccccccccccccccccccccccccccccccccccccccccccccccccccccccccccccccccccccccccccccccccsssccccscsccccsscccccc"
         style="fill:#0093dd;fill-rule:evenodd;display:inline;enable-background:new"
         inkscape:connector-curvature="0"
         id="path3017"
         d="m 305,228.648 0.84376,0 0,-2.47432 c 0,-2.85684 2.30906,-5.17372 5.15623,-5.17372 2.84728,0 5.15619,2.31688 5.15619,5.17372 l 0,2.52323 c -0.0121,0.009 -0.0243,0.0169 -0.0363,0.0252 l 6e-5,0 -0.008,0.005 -5.2e-4,5.3e-4 -5.4e-4,3.5e-4 -5.1e-4,5.3e-4 -0.004,0.003 -0.005,0.003 -5.3e-4,5.3e-4 -0.005,0.004 -2.7e-4,1.9e-4 -0.003,0.001 -9.7e-4,5.3e-4 -0.003,0.001 -5.1e-4,3.5e-4 -0.003,0.002 -3e-5,0 -0.003,0.002 -0.004,0.003 -0.003,0.001 -9.7e-4,7.3e-4 -9.7e-4,7.2e-4 -0.005,0.003 -0.005,0.003 -2e-4,2e-4 -0.007,0.004 -9.7e-4,5.4e-4 -0.007,0.005 -5.2e-4,3.5e-4 -0.003,0.002 -5e-5,6e-5 -9.8e-4,5.3e-4 -0.01,0.006 -9.8e-4,7.3e-4 -0.003,0.001 -5.2e-4,5.3e-4 -5.3e-4,3.5e-4 -0.005,0.003 -5.2e-4,2.6e-4 -6e-5,7e-5 -3.3e-4,2e-4 -0.005,0.004 -9.7e-4,5.3e-4 -9.7e-4,7.3e-4 -9.7e-4,7.3e-4 -9.7e-4,5.3e-4 -0.003,0.001 -0.003,0.001 -2.1e-4,6e-5 -0.003,0.001 -3.2e-4,2e-4 -0.003,0.001 -5.2e-4,3.5e-4 -0.003,0.001 -9.8e-4,5.4e-4 -9.7e-4,7.3e-4 -9.7e-4,7.2e-4 -9.7e-4,5.3e-4 -0.0156,0.01 -0.003,0.002 -5.3e-4,3.5e-4 -0.009,0.005 -5.3e-4,3.5e-4 -0.01,0.006 -2.7e-4,2e-4 -5.1e-4,3.4e-4 -0.003,0.001 -1.9e-4,6e-5 -0.003,0.001 -3.3e-4,2e-4 -0.003,0.001 -0.003,10e-4 -3.4e-4,2e-4 -9.7e-4,5.3e-4 -0.004,0.003 -0.003,0.001 -0.003,10e-4 -0.009,0.005 -0.009,0.005 -0.01,0.005 -0.01,0.005 -0.0188,0.011 -0.01,0.005 -0.01,0.006 -0.004,0.003 -0.0248,0.0143 -0.01,0.006 -0.01,0.006 -0.01,0.006 -0.0128,0.007 -0.0167,0.009 -0.01,0.006 -0.0383,0.0217 -9.7e-4,7.3e-4 -0.0101,0.006 -0.01,0.006 -0.003,0.001 -0.0133,0.007 -0.0302,0.0166 -0.0142,0.008 c -0.0146,0.008 -0.0291,0.0159 -0.0439,0.0238 l -0.004,0.002 -0.007,0.004 -0.0215,0.0115 -0.0109,0.006 -9.7e-4,7.3e-4 -0.0198,0.0105 -6e-5,7e-5 -0.0111,0.006 -0.003,0.001 -0.019,0.01 -0.0111,0.006 -0.0102,0.005 c -0.014,0.007 -0.0279,0.0145 -0.042,0.0217 l -0.0116,0.006 c -0.0167,0.009 -0.0334,0.017 -0.0504,0.0255 l -1.9e-4,6e-5 c -0.0162,0.008 -0.0325,0.0162 -0.049,0.0243 l -0.0163,0.008 c -0.018,0.009 -0.0361,0.0175 -0.0545,0.0263 l -7e-5,0 c -1.02391,0.49078 -2.66604,1.01299 -5.78346,1.23754 -2.23324,0.16098 -3.58709,1.14726 -4.47015,2.33751 l 0,-4.13529 z m 3.21881,0 5.56235,0 0,-2.47432 c 0,-1.54102 -1.2454,-2.79063 -2.78117,-2.79063 -1.53573,0 -2.78118,1.24961 -2.78118,2.79063 z m 7.20535,0.47601 c -0.0166,0.009 -0.0334,0.0169 -0.0504,0.0255 m -2.038,-6.89787 c -0.66122,-0.39644 -1.43422,-0.62453 -2.26025,-0.62453 -2.26426,0 -4.13064,1.71172 -4.38453,3.91536 0.66377,-2.08371 2.60955,-3.59312 4.9062,-3.59312 0.61006,0 1.1954,0.10677 1.73858,0.30229 z M 317,229.69759 317,237 l -10.26652,0 c 1.13174,-0.63137 1.9752,-0.56706 3.37214,-0.52275 1.90238,0.0604 4.00442,-0.73927 5.03823,-1.79806 1.03391,-1.05892 -0.0936,-0.25056 -1.26396,0.0473 -1.17056,0.29772 -3.43554,0.32943 -4.94956,-0.0699 4.76849,0.0652 6.62431,-1.4825 7.67821,-2.86861 1.05382,-1.38608 -0.45581,-0.24066 -1.43379,0.23718 -0.97792,0.47828 -2.68352,0.81998 -4.55902,0.5708 2.83892,-0.006 4.99898,-1.42939 6.38427,-2.89845 z"
         class="fil0" />
    </g>
    <g
       inkscape:groupmode="layer"
       id="layer5"
       inkscape:label="hires"
       style="display:inline"
       sodipodi:insensitive="true">
      <g
         id="g8198"
         transform="matrix(5.0928038,0,0,2.2388776,20.301687,129.4805)"
         style="opacity:0.4" />
      <g
         id="g8230"
         inkscape:label="base"
         style="display:inline"
         transform="matrix(4.8890868,0,0,4.8890868,322.06038,251.81989)" />
      <path
         sodipodi:type="inkscape:offset"
         inkscape:radius="-1.0153296"
         inkscape:original="M 711.96875 227 C 709.68001 227.00001 707.67461 227.86289 706.5 229.1875 L 706.5 231.625 C 706.5 232.11623 706.8838 232.5 707.375 232.5 L 716.625 232.5 C 717.11622 232.50001 717.5 232.11622 717.5 231.625 L 717.5 229.25 C 716.33242 227.89578 714.28785 227 711.96875 227 z "
         style="opacity:0.35;fill:none;stroke:#ffffff;stroke-width:1;stroke-linecap:butt;stroke-linejoin:miter;stroke-miterlimit:4;stroke-opacity:1;stroke-dasharray:none;stroke-dashoffset:0;marker:none;visibility:visible;display:inline;overflow:visible;enable-background:accumulate"
         id="path5171-2"
         d="m 711.96875,228 c -1.90789,1e-5 -3.49694,0.75848 -4.46875,1.71875 l 0,1.78125 9,0 0,-1.75 c -0.96562,-0.98703 -2.59089,-1.75 -4.53125,-1.75 z"
         transform="translate(-7.8685593e-7,2.029528e-6)" />
      <path
         style="fill:#0093dd;fill-rule:evenodd"
         inkscape:connector-curvature="0"
         id="path37"
         d="m 60.021111,155.83198 12.666359,0 0,-38.22607 C 72.68747,74.753266 107.35117,40 150.09294,40 c 42.74311,0 77.40459,34.753266 77.40459,77.60591 l 0,37.84852 c -0.18295,0.12838 -0.36498,0.25409 -0.54437,0.37755 l 0.001,0 -0.11774,0.0797 -0.0134,0.009 -0.0134,0.008 -0.0134,0.009 -0.0584,0.0403 -0.0691,0.047 -0.0134,0.009 -0.0758,0.0515 -0.004,0.003 -0.0312,0.0201 -0.0179,0.0113 -0.0357,0.0255 -0.009,0.006 -0.046,0.0309 -4.4e-4,0 -0.046,0.0313 -0.0621,0.0416 -0.0312,0.0202 -0.0268,0.0166 -0.0223,0.0138 -0.0696,0.0475 -0.0674,0.0443 -0.003,0.003 -0.0875,0.0582 -0.0179,0.0127 -0.10666,0.0702 -0.009,0.006 -0.0446,0.029 -0.001,8.8e-4 -0.0179,0.0101 -0.13966,0.0917 -0.0222,0.0143 -0.0312,0.0201 -0.0134,0.009 -0.009,0.006 -0.0718,0.047 -0.009,0.004 -9.9e-4,10e-4 -0.005,0.003 -0.0821,0.0533 -0.0179,0.0113 -0.0268,0.017 -0.0268,0.0157 -0.0178,0.0126 -0.0446,0.0282 -0.0402,0.0259 -0.003,9.9e-4 -0.0446,0.0282 -0.005,0.003 -0.0402,0.0241 -0.0134,0.008 -0.0312,0.0202 -0.0223,0.0127 -0.0223,0.0142 -0.0268,0.0174 -0.0178,0.01 -0.23515,0.14808 -0.0499,0.0304 -0.0134,0.008 -0.12579,0.0783 -0.009,0.006 -0.14323,0.0872 -0.004,0.003 -0.009,0.006 -0.0402,0.0232 -0.003,0.001 -0.0402,0.025 -0.005,0.003 -0.0356,0.022 -0.0358,0.0215 -0.005,0.003 -0.0178,0.0113 -0.0621,0.037 -0.0312,0.0202 -0.0474,0.0287 -0.13832,0.0814 -0.13833,0.0814 -0.1392,0.0817 -0.13922,0.0822 -0.28111,0.16464 -0.14145,0.0822 -0.14189,0.0831 -0.0589,0.034 -0.3708,0.21474 -0.14412,0.0831 -0.14546,0.0831 -0.14548,0.084 -0.19141,0.10959 -0.24987,0.14181 -0.14814,0.084 -0.5756,0.32434 -0.0268,0.0134 -0.15172,0.0845 -0.15171,0.0854 -0.0356,0.0188 -0.20214,0.11186 -0.45379,0.25007 -0.21328,0.11717 c -0.21774,0.11855 -0.43773,0.23798 -0.65995,0.35744 l -0.0566,0.0309 -0.10351,0.0554 -0.32306,0.17223 -0.16241,0.0868 -0.0268,0.0143 -0.29851,0.15791 -0.001,9.1e-4 -0.16509,0.0863 -0.0473,0.0246 -0.2847,0.14941 -0.16687,0.0868 -0.15305,0.0792 c -0.20837,0.10833 -0.41898,0.21652 -0.63138,0.32478 l -0.17356,0.0887 c -0.24944,0.12658 -0.50154,0.25409 -0.75632,0.38113 l -0.003,9e-4 c -0.24318,0.1212 -0.48859,0.24292 -0.73668,0.3646 l -0.24631,0.12082 c -0.2695,0.13107 -0.54124,0.26348 -0.81654,0.39547 l -10e-4,0 c -15.37078,7.36186 -40.0226,15.19505 -86.82124,18.5632 C 93.580335,184.1032 73.256238,198.89724 60,216.75121 l 0,-60.9182 z m 48.320649,0 83.50194,0 0,-38.22607 c 0,-23.115318 -18.6959,-41.859516 -41.75076,-41.859516 -23.05441,0 -41.75118,18.744198 -41.75118,41.859516 l 0,38.22607 z m 108.16668,6.02903 c -0.24986,0.12659 -0.50108,0.25363 -0.75632,0.38113 M 185.15779,58.774171 c -9.92622,-5.946698 -21.53062,-9.368073 -33.93105,-9.368073 -33.99083,0 -62.008791,25.675974 -65.820264,58.730632 9.964608,-31.255842 39.174374,-53.896954 73.651574,-53.896954 9.15831,0 17.94538,1.601531 26.09974,4.534395 z m 55.00699,111.689489 0,109.53634 -154.120679,0 c 16.989619,-9.47052 29.651519,-8.50602 50.622599,-7.84125 28.55832,0.90545 60.11423,-11.08905 75.63361,-26.97107 15.52116,-15.8838 -1.40464,-3.75823 -18.97432,0.7104 -17.57237,4.46595 -51.57436,4.9415 -74.30259,-1.04815 71.58431,0.97838 99.44388,-22.23759 115.2649,-43.02935 15.82011,-20.79129 -6.84252,-3.6097 -21.52394,3.55782 -14.68051,7.17424 -40.28497,12.2996 -68.43993,8.56194 42.61773,-0.0887 75.04463,-21.44085 95.84035,-43.47668 z"
         class="fil0" />
    </g>
  </g>
</svg>
